<svg width="600" height="600" viewBox="0 0 600 600" xmlns="http://www.w3.org/2000/svg">
  <g transform="matrix(1.25,0,0,1,-1028.74,-1131.92)">
    <path d="M912.992,1675.69C912.992,1675.69 932.506,1637.91 950.472,1638.19C987.283,1638.77 1137.73,1638.01 1176.06,1638.19C1193.87,1638.27 1212.99,1675.69 1212.99,1675.69" style="fill:none;stroke:currentColor;stroke-width:29.45px;stroke-linecap:round;stroke-linejoin:round;stroke-miterlimit:1.5;"/>
  </g>
  <g transform="matrix(1.32989,0,0,1.22221,-1114.03,-1506.37)">
    <path d="M1175.49,1600.69L950.492,1600.69C950.492,1600.69 950.875,1471.71 950.492,1413.19C950.252,1376.43 950.451,1262.4 1062.99,1263.19C1174.73,1263.97 1174.7,1376.67 1175.49,1413.19C1176.76,1471.7 1175.49,1600.69 1175.49,1600.69Z" style="fill:none;stroke:currentColor;stroke-width:26.1px;stroke-linecap:round;stroke-linejoin:round;stroke-miterlimit:1.5;"/>
  </g>
</svg>
